/* XPM */
static char *eacd8cf0e1184796d9aecead4e50d7eaJQjR5PxANWnXv8yj[] = {
/* columns rows colors chars-per-pixel */
"48 48 8 1 ",
"  c #360903",
". c #B4180D",
"X c #CB2A15",
"o c #F35F58",
"O c #683D22",
"+ c #DD6F2D",
"@ c #FF914F",
"# c white",
/* pixels */
"                                                ",
"                                                ",
"  ..XXoooooooooooooooooooooooooooooooooooooooo  ",
"  ..XXoooooooooooooooooooooooooooooooooooooooo  ",
"  ..OOOOOOOOOOOOOOOOOOOOOOOOOOOOOOOOOOOOOOOOoo  ",
"  ..OOOOOOOOOOOOOOOOOOOOOOOOOOOOOOOOOOOOOOOOoo  ",
"  ..OO++++++++++++++++++++++++++++++++++++OOoo  ",
"  ..OO++++++++++++++++++++++++++++++++++++OOoo  ",
"  ..OO++@@@@@@@@@@@@@@@@@@@@@@@@@@@@@@@@++OOoo  ",
"  ..OO++@@@@@@@@@@@@@@@@@@@@@@@@@@@@@@@@++OOoo  ",
"  ..OO++@@@@@@@@@@@@@@@@@@@@@@@@@@@@@@@@++OOoo  ",
"  ..OO++@@@@@@@@@@@@@@@@@@@@@@@@@@@@@@@@++OOoo  ",
"  ..OO++@@@@@@@@@@@@@@@@@@@@@@@@@@@@@@@@++OOoo  ",
"  ..OO++@@@@@@@@@@@@@@@@@@@@@@@@@@@@@@@@++OOoo  ",
"  ..OO++@@@@@@@@@@@@@@@@@@@@@@@@@@@@@@@@++OOoo  ",
"  ..OO++@@@@@@@@@@@@@@@@@@@@@@@@@@@@@@@@++OOoo  ",
"  ..OO++@@@@@@@@@@@@@@@@@@@@@@@@@@@@@@@@++OOoo  ",
"  ..OO++@@@@@@@@@@@@@@@@@@@@@@@@@@@@@@@@++OOoo  ",
"  ..OO++@@@@@@@@@@@@@@@@@@@@@@@@@@@@@@@@++OOoo  ",
"  ..OO++@@@@@@@@@@@@@@@@@@@@@@@@@@@@@@@@++OOoo  ",
"  ..OO++@@@@@@@@@@@@@@@@@@@@@@@@@@@@@@@@++OOoo  ",
"  ..OO++@@@@@@@@@@@@@@@@@@@@@@@@@@@@@@@@++OOoo  ",
"  ..OO++@@@@@@@@@@@@@@@@@@@@@@@@@@@@@@@@++OOoo  ",
"  ..OO++@@@@@@@@@@@@@@@@@@@@@@@@@@@@@@@@++OOoo  ",
"  ..OO++@@@@@@@@@@@@@@@@@@@@@@@@@@@@@@@@++OOoo  ",
"  ..OO++@@@@@@@@@@@@@@@@@@@@@@@@@@@@@@@@++OOoo  ",
"  ..OO++@@@@@@@@@@@@@@@@@@@@@@@@@@@@@@@@++OOoo  ",
"  ..OO++@@@@@@@@@@@@@@@@@@@@@@@@@@@@@@@@++OOoo  ",
"  ..OO++@@@@@@@@@@@@@@@@@@@@@@@@@@@@@@@@++OOoo  ",
"  ..OO++@@@@@@@@@@@@@@@@@@@@@@@@@@@@@@@@++OOoo  ",
"  ..OO++@@@@@@@@@@@@@@@@@@@@@@@@@@@@@@@@++OOoo  ",
"  ..OO++@@@@@@@@@@@@@@@@@@@@@@@@@@@@@@@@++OOoo  ",
"  ..OO++@@@@@@@@@@@@@@@@@@@@@@@@@@@@@@@@++OOoo  ",
"  ..OO++@@@@@@@@@@@@@@@@@@@@@@@@@@@@@@@@++OOoo  ",
"  ..OO++@@@@@@@@@@@@@@@@@@@@@@@@@@@@@@@@++OOoo  ",
"  ..OO++@@@@@@@@@@@@@@@@@@@@@@@@@@@@@@@@++OOoo  ",
"  ..OO++@@@@@@@@@@@@@@@@@@@@@@@@@@@@@@@@++OOoo  ",
"  ..OO++@@@@@@@@@@@@@@@@@@@@@@@@@@@@@@@@++OOoo  ",
"  ..OO++@@@@@@@@@@@@@@@@@@@@@@@@@@@@@@@@++OOoo  ",
"  ..OO++@@@@@@@@@@@@@@@@@@@@@@@@@@@@@@@@++OOoo  ",
"  ..OO++++++++++++++++++++++++++++++++++++OOoo  ",
"  ..OO++++++++++++++++++++++++++++++++++++OOoo  ",
"  ..OOOOOOOOOOOOOOOOOOOOOOOOOOOOOOOOOOOOOOOOoo  ",
"  ..OOOOOOOOOOOOOOOOOOOOOOOOOOOOOOOOOOOOOOOOoo  ",
"  ........................................XXoo  ",
"  ........................................XXoo  ",
"                                                ",
"                                                "
};
