/* XPM */
static char *_c32edf604c043f78b41d76eaf66e576gdAi0bEcOEQE2r5Y[] = {
/* columns rows colors chars-per-pixel */
"48 48 9 1 ",
"  c #1E0C03",
". c #9A5331",
"X c #D47345",
"o c #F19B72",
"O c #613018",
"+ c #8B4828",
"@ c #995331",
"# c #995231",
"$ c white",
/* pixels */
"                                                ",
"                                                ",
"  ....XXoooooooooooooooooooooooooooooooooooooo  ",
"  ....XXoooooooooooooooooooooooooooooooooooooo  ",
"  ..OOOOOOOOOOOOOOOOOOOOOOOOOOOOOOOOOOOOOOOOoo  ",
"  ..OOOOOOOOOOOOOOOOOOOOOOOOOOOOOOOOOOOOOOOOoo  ",
"  ..OO++++++++++++++++++++++++++++++++++++OOoo  ",
"  ..OO++++++++++++++++++++++++++++++++++++OOoo  ",
"  ..OO++................................++OOoo  ",
"  ..OO++................................++OOoo  ",
"  ..OO++................................++OOoo  ",
"  ..OO++................................++OOoo  ",
"  ..OO++....@@@@....@@@@@@@@....@@@@....++OOoo  ",
"  ..OO++....@@@@....@@@@@@@@....@@@@....++OOoo  ",
"  ..OO++....@@@@....@@@@@@@@....@@@@....++OOoo  ",
"  ..OO++....@@@@....@@@@@@@@....@@@@....++OOoo  ",
"  ..OO++................................++OOoo  ",
"  ..OO++................................++OOoo  ",
"  ..OO++................................++OOoo  ",
"  ..OO++................................++OOoo  ",
"  ..OO++....@@@@....########....@@@@....++OOoo  ",
"  ..OO++....@@@@....########....@@@@....++OOoo  ",
"  ..OO++....@@@@....########....@@@@....++OOoo  ",
"  ..OO++....@@@@....########....@@@@....++OOoo  ",
"  ..OO++....@@@@....########....@@@@....++OOoo  ",
"  ..OO++....@@@@....########....@@@@....++OOoo  ",
"  ..OO++....@@@@....########....@@@@....++OOoo  ",
"  ..OO++....@@@@....########....@@@@....++OOoo  ",
"  ..OO++................................++OOoo  ",
"  ..OO++................................++OOoo  ",
"  ..OO++................................++OOoo  ",
"  ..OO++................................++OOoo  ",
"  ..OO++....@@@@....@@@@@@@@....@@@@....++OOoo  ",
"  ..OO++....@@@@....@@@@@@@@....@@@@....++OOoo  ",
"  ..OO++....@@@@....@@@@@@@@....@@@@....++OOoo  ",
"  ..OO++....@@@@....@@@@@@@@....@@@@....++OOoo  ",
"  ..OO++................................++OOoo  ",
"  ..OO++................................++OOoo  ",
"  ..OO++................................++OOoo  ",
"  ..OO++................................++OOoo  ",
"  ..OO++++++++++++++++++++++++++++++++++++OOoo  ",
"  ..OO++++++++++++++++++++++++++++++++++++OOoo  ",
"  ..OOOOOOOOOOOOOOOOOOOOOOOOOOOOOOOOOOOOOOOOoo  ",
"  ..OOOOOOOOOOOOOOOOOOOOOOOOOOOOOOOOOOOOOOOOoo  ",
"  ........................................XXoo  ",
"  ........................................XXoo  ",
"                                                ",
"                                                "
};
