/* XPM */
static char *result[] = {
/* columns rows colors chars-per-pixel */
"64 64 7 1 ",
"  c #250E2A",
". c #31124A",
"X c #481E6A",
"o c #502575",
"O c #512576",
"+ c #7134AE",
"@ c #9056D9",
/* pixels */
"                                                                ",
"                                                                ",
"  OO++@@@@@@@@@@@@@@@@@@@@@@@@@@@@@@@@@@@@@@@@@@@@@@@@@@@@@@@@  ",
"  OO++@@@@@@@@@@@@@@@@@@@@@@@@@@@@@@@@@@@@@@@@@@@@@@@@@@@@@@@@  ",
"  OO........................................................@@  ",
"  OO........................................................@@  ",
"  OO..XXXXXXXXXXXXXXXXXXXXXXXXXXXXXXXXXXXXXXXXXXXXXXXXXXXX..@@  ",
"  OO..XXXXXXXXXXXXXXXXXXXXXXXXXXXXXXXXXXXXXXXXXXXXXXXXXXXX..@@  ",
"  OO..XXOOOOOOOOOOOOOOOOOOOOOOOOOOOOOOOOOOOOOOOOOOOOOOOOXX..@@  ",
"  OO..XXOOOOOOOOOOOOOOOOOOOOOOOOOOOOOOOOOOOOOOOOOOOOOOOOXX..@@  ",
"  OO..XXOOOOOOOOOOOOOOOOOOOOOOOOOOOOOOOOOOOOOOOOOOOOOOOOXX..@@  ",
"  OO..XXOOOOOOOOOOOOOOOOOOOOOOOOOOOOOOOOOOOOOOOOOOOOOOOOXX..@@  ",
"  OO..XXOOOOOOOOOOOOOOOOOOOOOOOOOOOOOOOOOOOOOOOOOOOOOOOOXX..@@  ",
"  OO..XXOOOOOOOOOOOOOOOOOOOOOOOOOOOOOOOOOOOOOOOOOOOOOOOOXX..@@  ",
"  OO..XXOOOOOOOOOOOOOOOOOOOOOOOOOOOOOOOOOOOOOOOOOOOOOOOOXX..@@  ",
"  OO..XXOOOOOOOOOOOOOOOOOOOOOOOOOOOOOOOOOOOOOOOOOOOOOOOOXX..@@  ",
"  OO..XXOOOOOOOOOOOOOOOOOOOOOOOOOOOOOOOOOOOOOOOOOOOOOOOOXX..@@  ",
"  OO..XXOOOOOOOOOOOOOOOOOOOOOOOOOOOOOOOOOOOOOOOOOOOOOOOOXX..@@  ",
"  OO..XXOOOOOOOOOOOOOOOOOOOOOOOOOOOOOOOOOOOOOOOOOOOOOOOOXX..@@  ",
"  OO..XXOOOOOOOOOOOOOOOOOOOOOOOOOOOOOOOOOOOOOOOOOOOOOOOOXX..@@  ",
"  OO..XXOOOOOOOOOOOOOOOOOOOOOOOOOOOOOOOOOOOOOOOOOOOOOOOOXX..@@  ",
"  OO..XXOOOOOOOOOOOOOOOOOOOOOOOOOOOOOOOOOOOOOOOOOOOOOOOOXX..@@  ",
"  OO..XXOOOOOOOOOOOOOOOOOOOOOOOOOOOOOOOOOOOOOOOOOOOOOOOOXX..@@  ",
"  OO..XXOOOOOOOOOOOOOOOOOOOOOOOOOOOOOOOOOOOOOOOOOOOOOOOOXX..@@  ",
"  OO..XXOOOOOOOOOOOOOOOOOOOOOOOOOOOOOOOOOOOOOOOOOOOOOOOOXX..@@  ",
"  OO..XXOOOOOOOOOOOOOOOOOOOOOOOOOOOOOOOOOOOOOOOOOOOOOOOOXX..@@  ",
"  OO..XXOOOOOOOOOOOOOOOOOOOOOOOOOOOOOOOOOOOOOOOOOOOOOOOOXX..@@  ",
"  OO..XXOOOOOOOOOOOOOOOOOOOOOOOOOOOOOOOOOOOOOOOOOOOOOOOOXX..@@  ",
"  OO..XXOOOOOOOOOOOOOOOOOOOOooooooooOOOOOOOOOOOOOOOOOOOOXX..@@  ",
"  OO..XXOOOOOOOOOOOOOOOOOOOOooooooooOOOOOOOOOOOOOOOOOOOOXX..@@  ",
"  OO..XXOOOOOOOOOOOOOOOOOOOOooooooooOOOOOOOOOOOOOOOOOOOOXX..@@  ",
"  OO..XXOOOOOOOOOOOOOOOOOOOOooooooooOOOOOOOOOOOOOOOOOOOOXX..@@  ",
"  OO..XXOOOOOOOOOOOOOOOOOOOOooooooooOOOOOOOOOOOOOOOOOOOOXX..@@  ",
"  OO..XXOOOOOOOOOOOOOOOOOOOOooooooooOOOOOOOOOOOOOOOOOOOOXX..@@  ",
"  OO..XXOOOOOOOOOOOOOOOOOOOOooooooooOOOOOOOOOOOOOOOOOOOOXX..@@  ",
"  OO..XXOOOOOOOOOOOOOOOOOOOOooooooooOOOOOOOOOOOOOOOOOOOOXX..@@  ",
"  OO..XXOOOOOOOOOOOOOOOOOOOOOOOOOOOOOOOOOOOOOOOOOOOOOOOOXX..@@  ",
"  OO..XXOOOOOOOOOOOOOOOOOOOOOOOOOOOOOOOOOOOOOOOOOOOOOOOOXX..@@  ",
"  OO..XXOOOOOOOOOOOOOOOOOOOOOOOOOOOOOOOOOOOOOOOOOOOOOOOOXX..@@  ",
"  OO..XXOOOOOOOOOOOOOOOOOOOOOOOOOOOOOOOOOOOOOOOOOOOOOOOOXX..@@  ",
"  OO..XXOOOOOOOOOOOOOOOOOOOOOOOOOOOOOOOOOOOOOOOOOOOOOOOOXX..@@  ",
"  OO..XXOOOOOOOOOOOOOOOOOOOOOOOOOOOOOOOOOOOOOOOOOOOOOOOOXX..@@  ",
"  OO..XXOOOOOOOOOOOOOOOOOOOOOOOOOOOOOOOOOOOOOOOOOOOOOOOOXX..@@  ",
"  OO..XXOOOOOOOOOOOOOOOOOOOOOOOOOOOOOOOOOOOOOOOOOOOOOOOOXX..@@  ",
"  OO..XXOOOOOOOOOOOOOOOOOOOOOOOOOOOOOOOOOOOOOOOOOOOOOOOOXX..@@  ",
"  OO..XXOOOOOOOOOOOOOOOOOOOOOOOOOOOOOOOOOOOOOOOOOOOOOOOOXX..@@  ",
"  OO..XXOOOOOOOOOOOOOOOOOOOOOOOOOOOOOOOOOOOOOOOOOOOOOOOOXX..@@  ",
"  OO..XXOOOOOOOOOOOOOOOOOOOOOOOOOOOOOOOOOOOOOOOOOOOOOOOOXX..@@  ",
"  OO..XXOOOOOOOOOOOOOOOOOOOOOOOOOOOOOOOOOOOOOOOOOOOOOOOOXX..@@  ",
"  OO..XXOOOOOOOOOOOOOOOOOOOOOOOOOOOOOOOOOOOOOOOOOOOOOOOOXX..@@  ",
"  OO..XXOOOOOOOOOOOOOOOOOOOOOOOOOOOOOOOOOOOOOOOOOOOOOOOOXX..@@  ",
"  OO..XXOOOOOOOOOOOOOOOOOOOOOOOOOOOOOOOOOOOOOOOOOOOOOOOOXX..@@  ",
"  OO..XXOOOOOOOOOOOOOOOOOOOOOOOOOOOOOOOOOOOOOOOOOOOOOOOOXX..@@  ",
"  OO..XXOOOOOOOOOOOOOOOOOOOOOOOOOOOOOOOOOOOOOOOOOOOOOOOOXX..@@  ",
"  OO..XXOOOOOOOOOOOOOOOOOOOOOOOOOOOOOOOOOOOOOOOOOOOOOOOOXX..@@  ",
"  OO..XXOOOOOOOOOOOOOOOOOOOOOOOOOOOOOOOOOOOOOOOOOOOOOOOOXX..@@  ",
"  OO..XXXXXXXXXXXXXXXXXXXXXXXXXXXXXXXXXXXXXXXXXXXXXXXXXXXX..@@  ",
"  OO..XXXXXXXXXXXXXXXXXXXXXXXXXXXXXXXXXXXXXXXXXXXXXXXXXXXX..@@  ",
"  OO........................................................@@  ",
"  OO........................................................@@  ",
"  OOOOOOOOOOOOOOOOOOOOOOOOOOOOOOOOOOOOOOOOOOOOOOOOOOOOOO++@@@@  ",
"  OOOOOOOOOOOOOOOOOOOOOOOOOOOOOOOOOOOOOOOOOOOOOOOOOOOOOO++@@@@  ",
"                                                                ",
"                                                                "
};
