/* XPM */
static char *_a4277532a0e440eaa8b030284a165d8S9Pqsjfz2eBrLl6s[] = {
/* columns rows colors chars-per-pixel */
"48 48 8 1 ",
"  c #08390A",
". c #36B40D",
"X c #3ACB15",
"o c #82F358",
"O c #226826",
"+ c #2DDD37",
"@ c #4FFF59",
"# c white",
/* pixels */
"                                                ",
"                                                ",
"  ..XXoooooooooooooooooooooooooooooooooooooooo  ",
"  ..XXoooooooooooooooooooooooooooooooooooooooo  ",
"  ..OOOOOOOOOOOOOOOOOOOOOOOOOOOOOOOOOOOOOOOOoo  ",
"  ..OOOOOOOOOOOOOOOOOOOOOOOOOOOOOOOOOOOOOOOOoo  ",
"  ..OO++++++++++++++++++++++++++++++++++++OOoo  ",
"  ..OO++++++++++++++++++++++++++++++++++++OOoo  ",
"  ..OO++@@@@@@@@@@@@@@@@@@@@@@@@@@@@@@@@++OOoo  ",
"  ..OO++@@@@@@@@@@@@@@@@@@@@@@@@@@@@@@@@++OOoo  ",
"  ..OO++@@@@@@@@@@@@@@@@@@@@@@@@@@@@@@@@++OOoo  ",
"  ..OO++@@@@@@@@@@@@@@@@@@@@@@@@@@@@@@@@++OOoo  ",
"  ..OO++@@@@@@@@@@@@@@@@@@@@@@@@@@@@@@@@++OOoo  ",
"  ..OO++@@@@@@@@@@@@@@@@@@@@@@@@@@@@@@@@++OOoo  ",
"  ..OO++@@@@@@@@@@@@@@@@@@@@@@@@@@@@@@@@++OOoo  ",
"  ..OO++@@@@@@@@@@@@@@@@@@@@@@@@@@@@@@@@++OOoo  ",
"  ..OO++@@@@@@@@@@@@@@@@@@@@@@@@@@@@@@@@++OOoo  ",
"  ..OO++@@@@@@@@@@@@@@@@@@@@@@@@@@@@@@@@++OOoo  ",
"  ..OO++@@@@@@@@@@@@@@@@@@@@@@@@@@@@@@@@++OOoo  ",
"  ..OO++@@@@@@@@@@@@@@@@@@@@@@@@@@@@@@@@++OOoo  ",
"  ..OO++@@@@@@@@@@@@@@@@@@@@@@@@@@@@@@@@++OOoo  ",
"  ..OO++@@@@@@@@@@@@@@@@@@@@@@@@@@@@@@@@++OOoo  ",
"  ..OO++@@@@@@@@@@@@@@@@@@@@@@@@@@@@@@@@++OOoo  ",
"  ..OO++@@@@@@@@@@@@@@@@@@@@@@@@@@@@@@@@++OOoo  ",
"  ..OO++@@@@@@@@@@@@@@@@@@@@@@@@@@@@@@@@++OOoo  ",
"  ..OO++@@@@@@@@@@@@@@@@@@@@@@@@@@@@@@@@++OOoo  ",
"  ..OO++@@@@@@@@@@@@@@@@@@@@@@@@@@@@@@@@++OOoo  ",
"  ..OO++@@@@@@@@@@@@@@@@@@@@@@@@@@@@@@@@++OOoo  ",
"  ..OO++@@@@@@@@@@@@@@@@@@@@@@@@@@@@@@@@++OOoo  ",
"  ..OO++@@@@@@@@@@@@@@@@@@@@@@@@@@@@@@@@++OOoo  ",
"  ..OO++@@@@@@@@@@@@@@@@@@@@@@@@@@@@@@@@++OOoo  ",
"  ..OO++@@@@@@@@@@@@@@@@@@@@@@@@@@@@@@@@++OOoo  ",
"  ..OO++@@@@@@@@@@@@@@@@@@@@@@@@@@@@@@@@++OOoo  ",
"  ..OO++@@@@@@@@@@@@@@@@@@@@@@@@@@@@@@@@++OOoo  ",
"  ..OO++@@@@@@@@@@@@@@@@@@@@@@@@@@@@@@@@++OOoo  ",
"  ..OO++@@@@@@@@@@@@@@@@@@@@@@@@@@@@@@@@++OOoo  ",
"  ..OO++@@@@@@@@@@@@@@@@@@@@@@@@@@@@@@@@++OOoo  ",
"  ..OO++@@@@@@@@@@@@@@@@@@@@@@@@@@@@@@@@++OOoo  ",
"  ..OO++@@@@@@@@@@@@@@@@@@@@@@@@@@@@@@@@++OOoo  ",
"  ..OO++@@@@@@@@@@@@@@@@@@@@@@@@@@@@@@@@++OOoo  ",
"  ..OO++++++++++++++++++++++++++++++++++++OOoo  ",
"  ..OO++++++++++++++++++++++++++++++++++++OOoo  ",
"  ..OOOOOOOOOOOOOOOOOOOOOOOOOOOOOOOOOOOOOOOOoo  ",
"  ..OOOOOOOOOOOOOOOOOOOOOOOOOOOOOOOOOOOOOOOOoo  ",
"  ........................................XXoo  ",
"  ........................................XXoo  ",
"                                                ",
"                                                "
};
