/* XPM */
static char *_b86e0558e1b42179ff91ac8b2d045ffz827f9sbrapiWS6q[] = {
/* columns rows colors chars-per-pixel */
"48 48 9 1 ",
"  c #04240A",
". c #319A44",
"X c #45D45D",
"o c #72F188",
"O c #186125",
"+ c #288B39",
"@ c #319944",
"# c #319943",
"$ c white",
/* pixels */
"                                                ",
"                                                ",
"  ..XXoooooooooooooooooooooooooooooooooooooooo  ",
"  ..XXoooooooooooooooooooooooooooooooooooooooo  ",
"  ..OOOOOOOOOOOOOOOOOOOOOOOOOOOOOOOOOOOOOOOOoo  ",
"  ..OOOOOOOOOOOOOOOOOOOOOOOOOOOOOOOOOOOOOOOOoo  ",
"  ..OO++++++++++++++++++++++++++++++++++++OOoo  ",
"  ..OO++++++++++++++++++++++++++++++++++++OOoo  ",
"  ..OO++................................++OOoo  ",
"  ..OO++................................++OOoo  ",
"  ..OO++................................++OOoo  ",
"  ..OO++................................++OOoo  ",
"  ..OO++....@@@@....@@@@@@@@....@@@@....++OOoo  ",
"  ..OO++....@@@@....@@@@@@@@....@@@@....++OOoo  ",
"  ..OO++....@@@@....@@@@@@@@....@@@@....++OOoo  ",
"  ..OO++....@@@@....@@@@@@@@....@@@@....++OOoo  ",
"  ..OO++................................++OOoo  ",
"  ..OO++................................++OOoo  ",
"  ..OO++................................++OOoo  ",
"  ..OO++................................++OOoo  ",
"  ..OO++....@@@@....########....@@@@....++OOoo  ",
"  ..OO++....@@@@....########....@@@@....++OOoo  ",
"  ..OO++....@@@@....########....@@@@....++OOoo  ",
"  ..OO++....@@@@....########....@@@@....++OOoo  ",
"  ..OO++....@@@@....########....@@@@....++OOoo  ",
"  ..OO++....@@@@....########....@@@@....++OOoo  ",
"  ..OO++....@@@@....########....@@@@....++OOoo  ",
"  ..OO++....@@@@....########....@@@@....++OOoo  ",
"  ..OO++................................++OOoo  ",
"  ..OO++................................++OOoo  ",
"  ..OO++................................++OOoo  ",
"  ..OO++................................++OOoo  ",
"  ..OO++....@@@@....@@@@@@@@....@@@@....++OOoo  ",
"  ..OO++....@@@@....@@@@@@@@....@@@@....++OOoo  ",
"  ..OO++....@@@@....@@@@@@@@....@@@@....++OOoo  ",
"  ..OO++....@@@@....@@@@@@@@....@@@@....++OOoo  ",
"  ..OO++................................++OOoo  ",
"  ..OO++................................++OOoo  ",
"  ..OO++................................++OOoo  ",
"  ..OO++................................++OOoo  ",
"  ..OO++++++++++++++++++++++++++++++++++++OOoo  ",
"  ..OO++++++++++++++++++++++++++++++++++++OOoo  ",
"  ..OOOOOOOOOOOOOOOOOOOOOOOOOOOOOOOOOOOOOOOOoo  ",
"  ..OOOOOOOOOOOOOOOOOOOOOOOOOOOOOOOOOOOOOOOOoo  ",
"  ........................................XXoo  ",
"  ........................................XXoo  ",
"                                                ",
"                                                "
};
