/* XPM */
static char *result[] = {
/* columns rows colors chars-per-pixel */
"64 64 10 1 ",
"  c #250E2A",
". c #4D0A93",
"X c #6011AA",
"o c #8246E0",
"O c #491B53",
"+ c #9924BF",
"@ c #BF3FFF",
"# c #BE3FFE",
"$ c #BD3FFD",
"% c white",
/* pixels */
"                                                                ",
"                                                                ",
"  ..XXoooooooooooooooooooooooooooooooooooooooooooooooooooooooo  ",
"  ..XXoooooooooooooooooooooooooooooooooooooooooooooooooooooooo  ",
"  ..OOOOOOOOOOOOOOOOOOOOOOOOOOOOOOOOOOOOOOOOOOOOOOOOOOOOOOOOoo  ",
"  ..OOOOOOOOOOOOOOOOOOOOOOOOOOOOOOOOOOOOOOOOOOOOOOOOOOOOOOOOoo  ",
"  ..OO++++++++++++++++++++++++++++++++++++++++++++++++++++OOoo  ",
"  ..OO++++++++++++++++++++++++++++++++++++++++++++++++++++OOoo  ",
"  ..OO++@@@@@@@@@@@@@@@@@@@@@@@@@@@@@@@@@@@@@@@@@@@@@@@@++OOoo  ",
"  ..OO++@@@@@@@@@@@@@@@@@@@@@@@@@@@@@@@@@@@@@@@@@@@@@@@@++OOoo  ",
"  ..OO++@@@@@@@@@@@@@@@@@@@@@@@@@@@@@@@@@@@@@@@@@@@@@@@@++OOoo  ",
"  ..OO++@@@@@@@@@@@@@@@@@@@@@@@@@@@@@@@@@@@@@@@@@@@@@@@@++OOoo  ",
"  ..OO++@@@@@@@@@@@@@@@@@@@@@@@@@@@@@@@@@@@@@@@@@@@@@@@@++OOoo  ",
"  ..OO++@@@@@@@@@@@@@@@@@@@@@@@@@@@@@@@@@@@@@@@@@@@@@@@@++OOoo  ",
"  ..OO++@@@@@@@@@@@@@@@@@@@@@@@@@@@@@@@@@@@@@@@@@@@@@@@@++OOoo  ",
"  ..OO++@@@@@@@@@@@@@@@@@@@@@@@@@@@@@@@@@@@@@@@@@@@@@@@@++OOoo  ",
"  ..OO++@@@@@@@@@@@@@@@@@@@@@@@@@@@@@@@@@@@@@@@@@@@@@@@@++OOoo  ",
"  ..OO++@@@@@@@@@@@@@@@@@@@@@@@@@@@@@@@@@@@@@@@@@@@@@@@@++OOoo  ",
"  ..OO++@@@@@@@@@@@@@@@@@@@@@@@@@@@@@@@@@@@@@@@@@@@@@@@@++OOoo  ",
"  ..OO++@@@@@@@@@@@@@@@@@@@@@@@@@@@@@@@@@@@@@@@@@@@@@@@@++OOoo  ",
"  ..OO++@@@@@@@@@@@@####@@@@########@@@@####@@@@@@@@@@@@++OOoo  ",
"  ..OO++@@@@@@@@@@@@####@@@@########@@@@####@@@@@@@@@@@@++OOoo  ",
"  ..OO++@@@@@@@@@@@@####@@@@########@@@@####@@@@@@@@@@@@++OOoo  ",
"  ..OO++@@@@@@@@@@@@####@@@@########@@@@####@@@@@@@@@@@@++OOoo  ",
"  ..OO++@@@@@@@@@@@@@@@@################@@@@@@@@@@@@@@@@++OOoo  ",
"  ..OO++@@@@@@@@@@@@@@@@################@@@@@@@@@@@@@@@@++OOoo  ",
"  ..OO++@@@@@@@@@@@@@@@@################@@@@@@@@@@@@@@@@++OOoo  ",
"  ..OO++@@@@@@@@@@@@@@@@################@@@@@@@@@@@@@@@@++OOoo  ",
"  ..OO++@@@@@@@@@@@@########$$$$$$$$########@@@@@@@@@@@@++OOoo  ",
"  ..OO++@@@@@@@@@@@@########$$$$$$$$########@@@@@@@@@@@@++OOoo  ",
"  ..OO++@@@@@@@@@@@@########$$$$$$$$########@@@@@@@@@@@@++OOoo  ",
"  ..OO++@@@@@@@@@@@@########$$$$$$$$########@@@@@@@@@@@@++OOoo  ",
"  ..OO++@@@@@@@@@@@@########$$$$$$$$########@@@@@@@@@@@@++OOoo  ",
"  ..OO++@@@@@@@@@@@@########$$$$$$$$########@@@@@@@@@@@@++OOoo  ",
"  ..OO++@@@@@@@@@@@@########$$$$$$$$########@@@@@@@@@@@@++OOoo  ",
"  ..OO++@@@@@@@@@@@@########$$$$$$$$########@@@@@@@@@@@@++OOoo  ",
"  ..OO++@@@@@@@@@@@@@@@@################@@@@@@@@@@@@@@@@++OOoo  ",
"  ..OO++@@@@@@@@@@@@@@@@################@@@@@@@@@@@@@@@@++OOoo  ",
"  ..OO++@@@@@@@@@@@@@@@@################@@@@@@@@@@@@@@@@++OOoo  ",
"  ..OO++@@@@@@@@@@@@@@@@################@@@@@@@@@@@@@@@@++OOoo  ",
"  ..OO++@@@@@@@@@@@@####@@@@########@@@@####@@@@@@@@@@@@++OOoo  ",
"  ..OO++@@@@@@@@@@@@####@@@@########@@@@####@@@@@@@@@@@@++OOoo  ",
"  ..OO++@@@@@@@@@@@@####@@@@########@@@@####@@@@@@@@@@@@++OOoo  ",
"  ..OO++@@@@@@@@@@@@####@@@@########@@@@####@@@@@@@@@@@@++OOoo  ",
"  ..OO++@@@@@@@@@@@@@@@@@@@@@@@@@@@@@@@@@@@@@@@@@@@@@@@@++OOoo  ",
"  ..OO++@@@@@@@@@@@@@@@@@@@@@@@@@@@@@@@@@@@@@@@@@@@@@@@@++OOoo  ",
"  ..OO++@@@@@@@@@@@@@@@@@@@@@@@@@@@@@@@@@@@@@@@@@@@@@@@@++OOoo  ",
"  ..OO++@@@@@@@@@@@@@@@@@@@@@@@@@@@@@@@@@@@@@@@@@@@@@@@@++OOoo  ",
"  ..OO++@@@@@@@@@@@@@@@@@@@@@@@@@@@@@@@@@@@@@@@@@@@@@@@@++OOoo  ",
"  ..OO++@@@@@@@@@@@@@@@@@@@@@@@@@@@@@@@@@@@@@@@@@@@@@@@@++OOoo  ",
"  ..OO++@@@@@@@@@@@@@@@@@@@@@@@@@@@@@@@@@@@@@@@@@@@@@@@@++OOoo  ",
"  ..OO++@@@@@@@@@@@@@@@@@@@@@@@@@@@@@@@@@@@@@@@@@@@@@@@@++OOoo  ",
"  ..OO++@@@@@@@@@@@@@@@@@@@@@@@@@@@@@@@@@@@@@@@@@@@@@@@@++OOoo  ",
"  ..OO++@@@@@@@@@@@@@@@@@@@@@@@@@@@@@@@@@@@@@@@@@@@@@@@@++OOoo  ",
"  ..OO++@@@@@@@@@@@@@@@@@@@@@@@@@@@@@@@@@@@@@@@@@@@@@@@@++OOoo  ",
"  ..OO++@@@@@@@@@@@@@@@@@@@@@@@@@@@@@@@@@@@@@@@@@@@@@@@@++OOoo  ",
"  ..OO++++++++++++++++++++++++++++++++++++++++++++++++++++OOoo  ",
"  ..OO++++++++++++++++++++++++++++++++++++++++++++++++++++OOoo  ",
"  ..OOOOOOOOOOOOOOOOOOOOOOOOOOOOOOOOOOOOOOOOOOOOOOOOOOOOOOOOoo  ",
"  ..OOOOOOOOOOOOOOOOOOOOOOOOOOOOOOOOOOOOOOOOOOOOOOOOOOOOOOOOoo  ",
"  ......................................................XXoooo  ",
"  ......................................................XXoooo  ",
"                                                                ",
"                                                                "
};
