/* XPM */
static char *e908f8ec86574aa1d16ac647dff98af1awThSzijhIP41l3n[] = {
/* columns rows colors chars-per-pixel */
"64 64 8 1 ",
"  c #1F2029",
". c #404359",
"X c #595E7D",
"o c #797D9F",
"O c #252737",
"+ c #383B50",
"@ c #3F4258",
"# c white",
/* pixels */
"                                                                ",
"                                                                ",
"  ..XXoooooooooooooooooooooooooooooooooooooooooooooooooooooooo  ",
"  ..XXoooooooooooooooooooooooooooooooooooooooooooooooooooooooo  ",
"  ..OOOOOOOOOOOOOOOOOOOOOOOOOOOOOOOOOOOOOOOOOOOOOOOOOOOOOOOOoo  ",
"  ..OOOOOOOOOOOOOOOOOOOOOOOOOOOOOOOOOOOOOOOOOOOOOOOOOOOOOOOOoo  ",
"  ..OO++++++++++++++++++++++++++++++++++++++++++++++++++++OOoo  ",
"  ..OO++++++++++++++++++++++++++++++++++++++++++++++++++++OOoo  ",
"  ..OO++................................................++OOoo  ",
"  ..OO++................................................++OOoo  ",
"  ..OO++................................................++OOoo  ",
"  ..OO++................................................++OOoo  ",
"  ..OO++................................................++OOoo  ",
"  ..OO++................................................++OOoo  ",
"  ..OO++................................................++OOoo  ",
"  ..OO++................................................++OOoo  ",
"  ..OO++................................................++OOoo  ",
"  ..OO++................................................++OOoo  ",
"  ..OO++................................................++OOoo  ",
"  ..OO++................................................++OOoo  ",
"  ..OO++................................................++OOoo  ",
"  ..OO++................................................++OOoo  ",
"  ..OO++................................................++OOoo  ",
"  ..OO++................................................++OOoo  ",
"  ..OO++................................................++OOoo  ",
"  ..OO++................................................++OOoo  ",
"  ..OO++................................................++OOoo  ",
"  ..OO++................................................++OOoo  ",
"  ..OO++....................@@@@@@@@....................++OOoo  ",
"  ..OO++....................@@@@@@@@....................++OOoo  ",
"  ..OO++....................@@@@@@@@....................++OOoo  ",
"  ..OO++....................@@@@@@@@....................++OOoo  ",
"  ..OO++....................@@@@@@@@....................++OOoo  ",
"  ..OO++....................@@@@@@@@....................++OOoo  ",
"  ..OO++....................@@@@@@@@....................++OOoo  ",
"  ..OO++....................@@@@@@@@....................++OOoo  ",
"  ..OO++................................................++OOoo  ",
"  ..OO++................................................++OOoo  ",
"  ..OO++................................................++OOoo  ",
"  ..OO++................................................++OOoo  ",
"  ..OO++................................................++OOoo  ",
"  ..OO++................................................++OOoo  ",
"  ..OO++................................................++OOoo  ",
"  ..OO++................................................++OOoo  ",
"  ..OO++................................................++OOoo  ",
"  ..OO++................................................++OOoo  ",
"  ..OO++................................................++OOoo  ",
"  ..OO++................................................++OOoo  ",
"  ..OO++................................................++OOoo  ",
"  ..OO++................................................++OOoo  ",
"  ..OO++................................................++OOoo  ",
"  ..OO++................................................++OOoo  ",
"  ..OO++................................................++OOoo  ",
"  ..OO++................................................++OOoo  ",
"  ..OO++................................................++OOoo  ",
"  ..OO++................................................++OOoo  ",
"  ..OO++++++++++++++++++++++++++++++++++++++++++++++++++++OOoo  ",
"  ..OO++++++++++++++++++++++++++++++++++++++++++++++++++++OOoo  ",
"  ..OOOOOOOOOOOOOOOOOOOOOOOOOOOOOOOOOOOOOOOOOOOOOOOOOOOOOOOOoo  ",
"  ..OOOOOOOOOOOOOOOOOOOOOOOOOOOOOOOOOOOOOOOOOOOOOOOOOOOOOOOOoo  ",
"  ........................................................XXoo  ",
"  ........................................................XXoo  ",
"                                                                ",
"                                                                "
};
