/* XPM */
static char *result[] = {
/* columns rows colors chars-per-pixel */
"64 64 10 1 ",
"  c #0E112A",
". c #0A4493",
"X c #1149AA",
"o c #4680E0",
"O c #1B2253",
"+ c #2436BF",
"@ c #3F51FF",
"# c #3F51FE",
"$ c #3F50FD",
"% c white",
/* pixels */
"                                                                ",
"                                                                ",
"  ..XXoooooooooooooooooooooooooooooooooooooooooooooooooooooooo  ",
"  ..XXoooooooooooooooooooooooooooooooooooooooooooooooooooooooo  ",
"  ..OOOOOOOOOOOOOOOOOOOOOOOOOOOOOOOOOOOOOOOOOOOOOOOOOOOOOOOOoo  ",
"  ..OOOOOOOOOOOOOOOOOOOOOOOOOOOOOOOOOOOOOOOOOOOOOOOOOOOOOOOOoo  ",
"  ..OO++++++++++++++++++++++++++++++++++++++++++++++++++++OOoo  ",
"  ..OO++++++++++++++++++++++++++++++++++++++++++++++++++++OOoo  ",
"  ..OO++@@@@@@@@@@@@@@@@@@@@@@@@@@@@@@@@@@@@@@@@@@@@@@@@++OOoo  ",
"  ..OO++@@@@@@@@@@@@@@@@@@@@@@@@@@@@@@@@@@@@@@@@@@@@@@@@++OOoo  ",
"  ..OO++@@@@@@@@@@@@@@@@@@@@@@@@@@@@@@@@@@@@@@@@@@@@@@@@++OOoo  ",
"  ..OO++@@@@@@@@@@@@@@@@@@@@@@@@@@@@@@@@@@@@@@@@@@@@@@@@++OOoo  ",
"  ..OO++@@@@@@@@@@@@@@@@@@@@@@@@@@@@@@@@@@@@@@@@@@@@@@@@++OOoo  ",
"  ..OO++@@@@@@@@@@@@@@@@@@@@@@@@@@@@@@@@@@@@@@@@@@@@@@@@++OOoo  ",
"  ..OO++@@@@@@@@@@@@@@@@@@@@@@@@@@@@@@@@@@@@@@@@@@@@@@@@++OOoo  ",
"  ..OO++@@@@@@@@@@@@@@@@@@@@@@@@@@@@@@@@@@@@@@@@@@@@@@@@++OOoo  ",
"  ..OO++@@@@@@@@@@@@@@@@@@@@@@@@@@@@@@@@@@@@@@@@@@@@@@@@++OOoo  ",
"  ..OO++@@@@@@@@@@@@@@@@@@@@@@@@@@@@@@@@@@@@@@@@@@@@@@@@++OOoo  ",
"  ..OO++@@@@@@@@@@@@@@@@@@@@@@@@@@@@@@@@@@@@@@@@@@@@@@@@++OOoo  ",
"  ..OO++@@@@@@@@@@@@@@@@@@@@@@@@@@@@@@@@@@@@@@@@@@@@@@@@++OOoo  ",
"  ..OO++@@@@@@@@@@@@####@@@@########@@@@####@@@@@@@@@@@@++OOoo  ",
"  ..OO++@@@@@@@@@@@@####@@@@########@@@@####@@@@@@@@@@@@++OOoo  ",
"  ..OO++@@@@@@@@@@@@####@@@@########@@@@####@@@@@@@@@@@@++OOoo  ",
"  ..OO++@@@@@@@@@@@@####@@@@########@@@@####@@@@@@@@@@@@++OOoo  ",
"  ..OO++@@@@@@@@@@@@@@@@################@@@@@@@@@@@@@@@@++OOoo  ",
"  ..OO++@@@@@@@@@@@@@@@@################@@@@@@@@@@@@@@@@++OOoo  ",
"  ..OO++@@@@@@@@@@@@@@@@################@@@@@@@@@@@@@@@@++OOoo  ",
"  ..OO++@@@@@@@@@@@@@@@@################@@@@@@@@@@@@@@@@++OOoo  ",
"  ..OO++@@@@@@@@@@@@########$$$$$$$$########@@@@@@@@@@@@++OOoo  ",
"  ..OO++@@@@@@@@@@@@########$$$$$$$$########@@@@@@@@@@@@++OOoo  ",
"  ..OO++@@@@@@@@@@@@########$$$$$$$$########@@@@@@@@@@@@++OOoo  ",
"  ..OO++@@@@@@@@@@@@########$$$$$$$$########@@@@@@@@@@@@++OOoo  ",
"  ..OO++@@@@@@@@@@@@########$$$$$$$$########@@@@@@@@@@@@++OOoo  ",
"  ..OO++@@@@@@@@@@@@########$$$$$$$$########@@@@@@@@@@@@++OOoo  ",
"  ..OO++@@@@@@@@@@@@########$$$$$$$$########@@@@@@@@@@@@++OOoo  ",
"  ..OO++@@@@@@@@@@@@########$$$$$$$$########@@@@@@@@@@@@++OOoo  ",
"  ..OO++@@@@@@@@@@@@@@@@################@@@@@@@@@@@@@@@@++OOoo  ",
"  ..OO++@@@@@@@@@@@@@@@@################@@@@@@@@@@@@@@@@++OOoo  ",
"  ..OO++@@@@@@@@@@@@@@@@################@@@@@@@@@@@@@@@@++OOoo  ",
"  ..OO++@@@@@@@@@@@@@@@@################@@@@@@@@@@@@@@@@++OOoo  ",
"  ..OO++@@@@@@@@@@@@####@@@@########@@@@####@@@@@@@@@@@@++OOoo  ",
"  ..OO++@@@@@@@@@@@@####@@@@########@@@@####@@@@@@@@@@@@++OOoo  ",
"  ..OO++@@@@@@@@@@@@####@@@@########@@@@####@@@@@@@@@@@@++OOoo  ",
"  ..OO++@@@@@@@@@@@@####@@@@########@@@@####@@@@@@@@@@@@++OOoo  ",
"  ..OO++@@@@@@@@@@@@@@@@@@@@@@@@@@@@@@@@@@@@@@@@@@@@@@@@++OOoo  ",
"  ..OO++@@@@@@@@@@@@@@@@@@@@@@@@@@@@@@@@@@@@@@@@@@@@@@@@++OOoo  ",
"  ..OO++@@@@@@@@@@@@@@@@@@@@@@@@@@@@@@@@@@@@@@@@@@@@@@@@++OOoo  ",
"  ..OO++@@@@@@@@@@@@@@@@@@@@@@@@@@@@@@@@@@@@@@@@@@@@@@@@++OOoo  ",
"  ..OO++@@@@@@@@@@@@@@@@@@@@@@@@@@@@@@@@@@@@@@@@@@@@@@@@++OOoo  ",
"  ..OO++@@@@@@@@@@@@@@@@@@@@@@@@@@@@@@@@@@@@@@@@@@@@@@@@++OOoo  ",
"  ..OO++@@@@@@@@@@@@@@@@@@@@@@@@@@@@@@@@@@@@@@@@@@@@@@@@++OOoo  ",
"  ..OO++@@@@@@@@@@@@@@@@@@@@@@@@@@@@@@@@@@@@@@@@@@@@@@@@++OOoo  ",
"  ..OO++@@@@@@@@@@@@@@@@@@@@@@@@@@@@@@@@@@@@@@@@@@@@@@@@++OOoo  ",
"  ..OO++@@@@@@@@@@@@@@@@@@@@@@@@@@@@@@@@@@@@@@@@@@@@@@@@++OOoo  ",
"  ..OO++@@@@@@@@@@@@@@@@@@@@@@@@@@@@@@@@@@@@@@@@@@@@@@@@++OOoo  ",
"  ..OO++@@@@@@@@@@@@@@@@@@@@@@@@@@@@@@@@@@@@@@@@@@@@@@@@++OOoo  ",
"  ..OO++++++++++++++++++++++++++++++++++++++++++++++++++++OOoo  ",
"  ..OO++++++++++++++++++++++++++++++++++++++++++++++++++++OOoo  ",
"  ..OOOOOOOOOOOOOOOOOOOOOOOOOOOOOOOOOOOOOOOOOOOOOOOOOOOOOOOOoo  ",
"  ..OOOOOOOOOOOOOOOOOOOOOOOOOOOOOOOOOOOOOOOOOOOOOOOOOOOOOOOOoo  ",
"  ........................................................XXoo  ",
"  ........................................................XXoo  ",
"                                                                ",
"                                                                "
};
