/* XPM */
static char *_ce6c336b0ee4a0dbb877cd4ea0dd6bcX5TgG4RbrptccmRQ[] = {
/* columns rows colors chars-per-pixel */
"48 48 9 1 ",
"  c #22040C",
". c #9A314D",
"X c #D4456D",
"o c #F17295",
"O c #61182C",
"+ c #8B2843",
"@ c #99314D",
"# c #99314C",
"$ c white",
/* pixels */
"                                                ",
"                                                ",
"  ..XXoooooooooooooooooooooooooooooooooooooooo  ",
"  ..XXoooooooooooooooooooooooooooooooooooooooo  ",
"  ..OOOOOOOOOOOOOOOOOOOOOOOOOOOOOOOOOOOOOOOOoo  ",
"  ..OOOOOOOOOOOOOOOOOOOOOOOOOOOOOOOOOOOOOOOOoo  ",
"  ..OO++++++++++++++++++++++++++++++++++++OOoo  ",
"  ..OO++++++++++++++++++++++++++++++++++++OOoo  ",
"  ..OO++................................++OOoo  ",
"  ..OO++................................++OOoo  ",
"  ..OO++................................++OOoo  ",
"  ..OO++................................++OOoo  ",
"  ..OO++....@@@@....@@@@@@@@....@@@@....++OOoo  ",
"  ..OO++....@@@@....@@@@@@@@....@@@@....++OOoo  ",
"  ..OO++....@@@@....@@@@@@@@....@@@@....++OOoo  ",
"  ..OO++....@@@@....@@@@@@@@....@@@@....++OOoo  ",
"  ..OO++................................++OOoo  ",
"  ..OO++................................++OOoo  ",
"  ..OO++................................++OOoo  ",
"  ..OO++................................++OOoo  ",
"  ..OO++....@@@@....########....@@@@....++OOoo  ",
"  ..OO++....@@@@....########....@@@@....++OOoo  ",
"  ..OO++....@@@@....########....@@@@....++OOoo  ",
"  ..OO++....@@@@....########....@@@@....++OOoo  ",
"  ..OO++....@@@@....########....@@@@....++OOoo  ",
"  ..OO++....@@@@....########....@@@@....++OOoo  ",
"  ..OO++....@@@@....########....@@@@....++OOoo  ",
"  ..OO++....@@@@....########....@@@@....++OOoo  ",
"  ..OO++................................++OOoo  ",
"  ..OO++................................++OOoo  ",
"  ..OO++................................++OOoo  ",
"  ..OO++................................++OOoo  ",
"  ..OO++....@@@@....@@@@@@@@....@@@@....++OOoo  ",
"  ..OO++....@@@@....@@@@@@@@....@@@@....++OOoo  ",
"  ..OO++....@@@@....@@@@@@@@....@@@@....++OOoo  ",
"  ..OO++....@@@@....@@@@@@@@....@@@@....++OOoo  ",
"  ..OO++................................++OOoo  ",
"  ..OO++................................++OOoo  ",
"  ..OO++................................++OOoo  ",
"  ..OO++................................++OOoo  ",
"  ..OO++++++++++++++++++++++++++++++++++++OOoo  ",
"  ..OO++++++++++++++++++++++++++++++++++++OOoo  ",
"  ..OOOOOOOOOOOOOOOOOOOOOOOOOOOOOOOOOOOOOOOOoo  ",
"  ..OOOOOOOOOOOOOOOOOOOOOOOOOOOOOOOOOOOOOOOOoo  ",
"  ......................................XXoooo  ",
"  ......................................XXoooo  ",
"                                                ",
"                                                "
};
