/* XPM */
static char *_5eca835057b46a7b8e09823d2a73c06yDaMuPAd1vGY8AUu[] = {
/* columns rows colors chars-per-pixel */
"48 48 8 1 ",
"  c #370615",
". c #B40D3F",
"X c #CB1544",
"o c #F3588B",
"O c #682222",
"+ c #DD2D2D",
"@ c #FF4F4F",
"# c white",
/* pixels */
"                                                ",
"                                                ",
"  ..XXoooooooooooooooooooooooooooooooooooooooo  ",
"  ..XXoooooooooooooooooooooooooooooooooooooooo  ",
"  ..OOOOOOOOOOOOOOOOOOOOOOOOOOOOOOOOOOOOOOOOoo  ",
"  ..OOOOOOOOOOOOOOOOOOOOOOOOOOOOOOOOOOOOOOOOoo  ",
"  ..OO++++++++++++++++++++++++++++++++++++OOoo  ",
"  ..OO++++++++++++++++++++++++++++++++++++OOoo  ",
"  ..OO++@@@@@@@@@@@@@@@@@@@@@@@@@@@@@@@@++OOoo  ",
"  ..OO++@@@@@@@@@@@@@@@@@@@@@@@@@@@@@@@@++OOoo  ",
"  ..OO++@@@@@@@@@@@@@@@@@@@@@@@@@@@@@@@@++OOoo  ",
"  ..OO++@@@@@@@@@@@@@@@@@@@@@@@@@@@@@@@@++OOoo  ",
"  ..OO++@@@@@@@@@@@@@@@@@@@@@@@@@@@@@@@@++OOoo  ",
"  ..OO++@@@@@@@@@@@@@@@@@@@@@@@@@@@@@@@@++OOoo  ",
"  ..OO++@@@@@@@@@@@@@@@@@@@@@@@@@@@@@@@@++OOoo  ",
"  ..OO++@@@@@@@@@@@@@@@@@@@@@@@@@@@@@@@@++OOoo  ",
"  ..OO++@@@@@@@@@@@@@@@@@@@@@@@@@@@@@@@@++OOoo  ",
"  ..OO++@@@@@@@@@@@@@@@@@@@@@@@@@@@@@@@@++OOoo  ",
"  ..OO++@@@@@@@@@@@@@@@@@@@@@@@@@@@@@@@@++OOoo  ",
"  ..OO++@@@@@@@@@@@@@@@@@@@@@@@@@@@@@@@@++OOoo  ",
"  ..OO++@@@@@@@@@@@@@@@@@@@@@@@@@@@@@@@@++OOoo  ",
"  ..OO++@@@@@@@@@@@@@@@@@@@@@@@@@@@@@@@@++OOoo  ",
"  ..OO++@@@@@@@@@@@@@@@@@@@@@@@@@@@@@@@@++OOoo  ",
"  ..OO++@@@@@@@@@@@@@@@@@@@@@@@@@@@@@@@@++OOoo  ",
"  ..OO++@@@@@@@@@@@@@@@@@@@@@@@@@@@@@@@@++OOoo  ",
"  ..OO++@@@@@@@@@@@@@@@@@@@@@@@@@@@@@@@@++OOoo  ",
"  ..OO++@@@@@@@@@@@@@@@@@@@@@@@@@@@@@@@@++OOoo  ",
"  ..OO++@@@@@@@@@@@@@@@@@@@@@@@@@@@@@@@@++OOoo  ",
"  ..OO++@@@@@@@@@@@@@@@@@@@@@@@@@@@@@@@@++OOoo  ",
"  ..OO++@@@@@@@@@@@@@@@@@@@@@@@@@@@@@@@@++OOoo  ",
"  ..OO++@@@@@@@@@@@@@@@@@@@@@@@@@@@@@@@@++OOoo  ",
"  ..OO++@@@@@@@@@@@@@@@@@@@@@@@@@@@@@@@@++OOoo  ",
"  ..OO++@@@@@@@@@@@@@@@@@@@@@@@@@@@@@@@@++OOoo  ",
"  ..OO++@@@@@@@@@@@@@@@@@@@@@@@@@@@@@@@@++OOoo  ",
"  ..OO++@@@@@@@@@@@@@@@@@@@@@@@@@@@@@@@@++OOoo  ",
"  ..OO++@@@@@@@@@@@@@@@@@@@@@@@@@@@@@@@@++OOoo  ",
"  ..OO++@@@@@@@@@@@@@@@@@@@@@@@@@@@@@@@@++OOoo  ",
"  ..OO++@@@@@@@@@@@@@@@@@@@@@@@@@@@@@@@@++OOoo  ",
"  ..OO++@@@@@@@@@@@@@@@@@@@@@@@@@@@@@@@@++OOoo  ",
"  ..OO++@@@@@@@@@@@@@@@@@@@@@@@@@@@@@@@@++OOoo  ",
"  ..OO++++++++++++++++++++++++++++++++++++OOoo  ",
"  ..OO++++++++++++++++++++++++++++++++++++OOoo  ",
"  ..OOOOOOOOOOOOOOOOOOOOOOOOOOOOOOOOOOOOOOOOoo  ",
"  ..OOOOOOOOOOOOOOOOOOOOOOOOOOOOOOOOOOOOOOOOoo  ",
"  ........................................XXoo  ",
"  ........................................XXoo  ",
"                                                ",
"                                                "
};
