/* XPM */
static char *result[] = {
/* columns rows colors chars-per-pixel */
"64 64 7 1 ",
"  c #0E112A",
". c #12134A",
"X c #1E1F6A",
"o c #252575",
"O c #252576",
"+ c #3436AE",
"@ c #5657D9",
/* pixels */
"                                                                ",
"                                                                ",
"  OOOO++@@@@@@@@@@@@@@@@@@@@@@@@@@@@@@@@@@@@@@@@@@@@@@@@@@@@@@  ",
"  OOOO++@@@@@@@@@@@@@@@@@@@@@@@@@@@@@@@@@@@@@@@@@@@@@@@@@@@@@@  ",
"  OO........................................................@@  ",
"  OO........................................................@@  ",
"  OO..XXXXXXXXXXXXXXXXXXXXXXXXXXXXXXXXXXXXXXXXXXXXXXXXXXXX..@@  ",
"  OO..XXXXXXXXXXXXXXXXXXXXXXXXXXXXXXXXXXXXXXXXXXXXXXXXXXXX..@@  ",
"  OO..XXOOOOOOOOOOOOOOOOOOOOOOOOOOOOOOOOOOOOOOOOOOOOOOOOXX..@@  ",
"  OO..XXOOOOOOOOOOOOOOOOOOOOOOOOOOOOOOOOOOOOOOOOOOOOOOOOXX..@@  ",
"  OO..XXOOOOOOOOOOOOOOOOOOOOOOOOOOOOOOOOOOOOOOOOOOOOOOOOXX..@@  ",
"  OO..XXOOOOOOOOOOOOOOOOOOOOOOOOOOOOOOOOOOOOOOOOOOOOOOOOXX..@@  ",
"  OO..XXOOOOOOOOOOOOOOOOOOOOOOOOOOOOOOOOOOOOOOOOOOOOOOOOXX..@@  ",
"  OO..XXOOOOOOOOOOOOOOOOOOOOOOOOOOOOOOOOOOOOOOOOOOOOOOOOXX..@@  ",
"  OO..XXOOOOOOOOOOOOOOOOOOOOOOOOOOOOOOOOOOOOOOOOOOOOOOOOXX..@@  ",
"  OO..XXOOOOOOOOOOOOOOOOOOOOOOOOOOOOOOOOOOOOOOOOOOOOOOOOXX..@@  ",
"  OO..XXOOOOOOOOOOOOOOOOOOOOOOOOOOOOOOOOOOOOOOOOOOOOOOOOXX..@@  ",
"  OO..XXOOOOOOOOOOOOOOOOOOOOOOOOOOOOOOOOOOOOOOOOOOOOOOOOXX..@@  ",
"  OO..XXOOOOOOOOOOOOOOOOOOOOOOOOOOOOOOOOOOOOOOOOOOOOOOOOXX..@@  ",
"  OO..XXOOOOOOOOOOOOOOOOOOOOOOOOOOOOOOOOOOOOOOOOOOOOOOOOXX..@@  ",
"  OO..XXOOOOOOOOOOOOOOOOOOOOOOOOOOOOOOOOOOOOOOOOOOOOOOOOXX..@@  ",
"  OO..XXOOOOOOOOOOOOOOOOOOOOOOOOOOOOOOOOOOOOOOOOOOOOOOOOXX..@@  ",
"  OO..XXOOOOOOOOOOOOOOOOOOOOOOOOOOOOOOOOOOOOOOOOOOOOOOOOXX..@@  ",
"  OO..XXOOOOOOOOOOOOOOOOOOOOOOOOOOOOOOOOOOOOOOOOOOOOOOOOXX..@@  ",
"  OO..XXOOOOOOOOOOOOOOOOOOOOOOOOOOOOOOOOOOOOOOOOOOOOOOOOXX..@@  ",
"  OO..XXOOOOOOOOOOOOOOOOOOOOOOOOOOOOOOOOOOOOOOOOOOOOOOOOXX..@@  ",
"  OO..XXOOOOOOOOOOOOOOOOOOOOOOOOOOOOOOOOOOOOOOOOOOOOOOOOXX..@@  ",
"  OO..XXOOOOOOOOOOOOOOOOOOOOOOOOOOOOOOOOOOOOOOOOOOOOOOOOXX..@@  ",
"  OO..XXOOOOOOOOOOOOOOOOOOOOooooooooOOOOOOOOOOOOOOOOOOOOXX..@@  ",
"  OO..XXOOOOOOOOOOOOOOOOOOOOooooooooOOOOOOOOOOOOOOOOOOOOXX..@@  ",
"  OO..XXOOOOOOOOOOOOOOOOOOOOooooooooOOOOOOOOOOOOOOOOOOOOXX..@@  ",
"  OO..XXOOOOOOOOOOOOOOOOOOOOooooooooOOOOOOOOOOOOOOOOOOOOXX..@@  ",
"  OO..XXOOOOOOOOOOOOOOOOOOOOooooooooOOOOOOOOOOOOOOOOOOOOXX..@@  ",
"  OO..XXOOOOOOOOOOOOOOOOOOOOooooooooOOOOOOOOOOOOOOOOOOOOXX..@@  ",
"  OO..XXOOOOOOOOOOOOOOOOOOOOooooooooOOOOOOOOOOOOOOOOOOOOXX..@@  ",
"  OO..XXOOOOOOOOOOOOOOOOOOOOooooooooOOOOOOOOOOOOOOOOOOOOXX..@@  ",
"  OO..XXOOOOOOOOOOOOOOOOOOOOOOOOOOOOOOOOOOOOOOOOOOOOOOOOXX..@@  ",
"  OO..XXOOOOOOOOOOOOOOOOOOOOOOOOOOOOOOOOOOOOOOOOOOOOOOOOXX..@@  ",
"  OO..XXOOOOOOOOOOOOOOOOOOOOOOOOOOOOOOOOOOOOOOOOOOOOOOOOXX..@@  ",
"  OO..XXOOOOOOOOOOOOOOOOOOOOOOOOOOOOOOOOOOOOOOOOOOOOOOOOXX..@@  ",
"  OO..XXOOOOOOOOOOOOOOOOOOOOOOOOOOOOOOOOOOOOOOOOOOOOOOOOXX..@@  ",
"  OO..XXOOOOOOOOOOOOOOOOOOOOOOOOOOOOOOOOOOOOOOOOOOOOOOOOXX..@@  ",
"  OO..XXOOOOOOOOOOOOOOOOOOOOOOOOOOOOOOOOOOOOOOOOOOOOOOOOXX..@@  ",
"  OO..XXOOOOOOOOOOOOOOOOOOOOOOOOOOOOOOOOOOOOOOOOOOOOOOOOXX..@@  ",
"  OO..XXOOOOOOOOOOOOOOOOOOOOOOOOOOOOOOOOOOOOOOOOOOOOOOOOXX..@@  ",
"  OO..XXOOOOOOOOOOOOOOOOOOOOOOOOOOOOOOOOOOOOOOOOOOOOOOOOXX..@@  ",
"  OO..XXOOOOOOOOOOOOOOOOOOOOOOOOOOOOOOOOOOOOOOOOOOOOOOOOXX..@@  ",
"  OO..XXOOOOOOOOOOOOOOOOOOOOOOOOOOOOOOOOOOOOOOOOOOOOOOOOXX..@@  ",
"  OO..XXOOOOOOOOOOOOOOOOOOOOOOOOOOOOOOOOOOOOOOOOOOOOOOOOXX..@@  ",
"  OO..XXOOOOOOOOOOOOOOOOOOOOOOOOOOOOOOOOOOOOOOOOOOOOOOOOXX..@@  ",
"  OO..XXOOOOOOOOOOOOOOOOOOOOOOOOOOOOOOOOOOOOOOOOOOOOOOOOXX..@@  ",
"  OO..XXOOOOOOOOOOOOOOOOOOOOOOOOOOOOOOOOOOOOOOOOOOOOOOOOXX..@@  ",
"  OO..XXOOOOOOOOOOOOOOOOOOOOOOOOOOOOOOOOOOOOOOOOOOOOOOOOXX..@@  ",
"  OO..XXOOOOOOOOOOOOOOOOOOOOOOOOOOOOOOOOOOOOOOOOOOOOOOOOXX..@@  ",
"  OO..XXOOOOOOOOOOOOOOOOOOOOOOOOOOOOOOOOOOOOOOOOOOOOOOOOXX..@@  ",
"  OO..XXOOOOOOOOOOOOOOOOOOOOOOOOOOOOOOOOOOOOOOOOOOOOOOOOXX..@@  ",
"  OO..XXXXXXXXXXXXXXXXXXXXXXXXXXXXXXXXXXXXXXXXXXXXXXXXXXXX..@@  ",
"  OO..XXXXXXXXXXXXXXXXXXXXXXXXXXXXXXXXXXXXXXXXXXXXXXXXXXXX..@@  ",
"  OO........................................................@@  ",
"  OO........................................................@@  ",
"  OOOOOOOOOOOOOOOOOOOOOOOOOOOOOOOOOOOOOOOOOOOOOOOOOOOOOOOO++@@  ",
"  OOOOOOOOOOOOOOOOOOOOOOOOOOOOOOOOOOOOOOOOOOOOOOOOOOOOOOOO++@@  ",
"                                                                ",
"                                                                "
};
