/* XPM */
static char *_0aaf59b6d1b46b9eb24c3e9f291ec9dL43uQaan7thzBFnL[] = {
/* columns rows colors chars-per-pixel */
"48 48 8 1 ",
"  c #232004",
". c #9A9431",
"X c #D4CB45",
"o c #F1E972",
"O c #615D18",
"+ c #8B8528",
"@ c #999331",
"# c white",
/* pixels */
"                                                ",
"                                                ",
"  ....XXoooooooooooooooooooooooooooooooooooooo  ",
"  ....XXoooooooooooooooooooooooooooooooooooooo  ",
"  ..OOOOOOOOOOOOOOOOOOOOOOOOOOOOOOOOOOOOOOOOoo  ",
"  ..OOOOOOOOOOOOOOOOOOOOOOOOOOOOOOOOOOOOOOOOoo  ",
"  ..OO++++++++++++++++++++++++++++++++++++OOoo  ",
"  ..OO++++++++++++++++++++++++++++++++++++OOoo  ",
"  ..OO++................................++OOoo  ",
"  ..OO++................................++OOoo  ",
"  ..OO++................................++OOoo  ",
"  ..OO++................................++OOoo  ",
"  ..OO++....@@@@....@@@@@@@@....@@@@....++OOoo  ",
"  ..OO++....@@@@....@@@@@@@@....@@@@....++OOoo  ",
"  ..OO++....@@@@....@@@@@@@@....@@@@....++OOoo  ",
"  ..OO++....@@@@....@@@@@@@@....@@@@....++OOoo  ",
"  ..OO++................................++OOoo  ",
"  ..OO++................................++OOoo  ",
"  ..OO++................................++OOoo  ",
"  ..OO++................................++OOoo  ",
"  ..OO++....@@@@....@@@@@@@@....@@@@....++OOoo  ",
"  ..OO++....@@@@....@@@@@@@@....@@@@....++OOoo  ",
"  ..OO++....@@@@....@@@@@@@@....@@@@....++OOoo  ",
"  ..OO++....@@@@....@@@@@@@@....@@@@....++OOoo  ",
"  ..OO++....@@@@....@@@@@@@@....@@@@....++OOoo  ",
"  ..OO++....@@@@....@@@@@@@@....@@@@....++OOoo  ",
"  ..OO++....@@@@....@@@@@@@@....@@@@....++OOoo  ",
"  ..OO++....@@@@....@@@@@@@@....@@@@....++OOoo  ",
"  ..OO++................................++OOoo  ",
"  ..OO++................................++OOoo  ",
"  ..OO++................................++OOoo  ",
"  ..OO++................................++OOoo  ",
"  ..OO++....@@@@....@@@@@@@@....@@@@....++OOoo  ",
"  ..OO++....@@@@....@@@@@@@@....@@@@....++OOoo  ",
"  ..OO++....@@@@....@@@@@@@@....@@@@....++OOoo  ",
"  ..OO++....@@@@....@@@@@@@@....@@@@....++OOoo  ",
"  ..OO++................................++OOoo  ",
"  ..OO++................................++OOoo  ",
"  ..OO++................................++OOoo  ",
"  ..OO++................................++OOoo  ",
"  ..OO++++++++++++++++++++++++++++++++++++OOoo  ",
"  ..OO++++++++++++++++++++++++++++++++++++OOoo  ",
"  ..OOOOOOOOOOOOOOOOOOOOOOOOOOOOOOOOOOOOOOOOoo  ",
"  ..OOOOOOOOOOOOOOOOOOOOOOOOOOOOOOOOOOOOOOOOoo  ",
"  ......................................XXoooo  ",
"  ......................................XXoooo  ",
"                                                ",
"                                                "
};
