/* XPM */
static char *f3f02b0fd4c24d76afb113543691a174bEMvksJP21Jy9o5g[] = {
/* columns rows colors chars-per-pixel */
"48 48 8 1 ",
"  c #312303",
". c #B4850D",
"X c #CBA015",
"o c #F3C458",
"O c #666822",
"+ c #D8DD2D",
"@ c #FAFF4F",
"# c white",
/* pixels */
"                                                ",
"                                                ",
"  ..XXoooooooooooooooooooooooooooooooooooooooo  ",
"  ..XXoooooooooooooooooooooooooooooooooooooooo  ",
"  ..OOOOOOOOOOOOOOOOOOOOOOOOOOOOOOOOOOOOOOOOoo  ",
"  ..OOOOOOOOOOOOOOOOOOOOOOOOOOOOOOOOOOOOOOOOoo  ",
"  ..OO++++++++++++++++++++++++++++++++++++OOoo  ",
"  ..OO++++++++++++++++++++++++++++++++++++OOoo  ",
"  ..OO++@@@@@@@@@@@@@@@@@@@@@@@@@@@@@@@@++OOoo  ",
"  ..OO++@@@@@@@@@@@@@@@@@@@@@@@@@@@@@@@@++OOoo  ",
"  ..OO++@@@@@@@@@@@@@@@@@@@@@@@@@@@@@@@@++OOoo  ",
"  ..OO++@@@@@@@@@@@@@@@@@@@@@@@@@@@@@@@@++OOoo  ",
"  ..OO++@@@@@@@@@@@@@@@@@@@@@@@@@@@@@@@@++OOoo  ",
"  ..OO++@@@@@@@@@@@@@@@@@@@@@@@@@@@@@@@@++OOoo  ",
"  ..OO++@@@@@@@@@@@@@@@@@@@@@@@@@@@@@@@@++OOoo  ",
"  ..OO++@@@@@@@@@@@@@@@@@@@@@@@@@@@@@@@@++OOoo  ",
"  ..OO++@@@@@@@@@@@@@@@@@@@@@@@@@@@@@@@@++OOoo  ",
"  ..OO++@@@@@@@@@@@@@@@@@@@@@@@@@@@@@@@@++OOoo  ",
"  ..OO++@@@@@@@@@@@@@@@@@@@@@@@@@@@@@@@@++OOoo  ",
"  ..OO++@@@@@@@@@@@@@@@@@@@@@@@@@@@@@@@@++OOoo  ",
"  ..OO++@@@@@@@@@@@@@@@@@@@@@@@@@@@@@@@@++OOoo  ",
"  ..OO++@@@@@@@@@@@@@@@@@@@@@@@@@@@@@@@@++OOoo  ",
"  ..OO++@@@@@@@@@@@@@@@@@@@@@@@@@@@@@@@@++OOoo  ",
"  ..OO++@@@@@@@@@@@@@@@@@@@@@@@@@@@@@@@@++OOoo  ",
"  ..OO++@@@@@@@@@@@@@@@@@@@@@@@@@@@@@@@@++OOoo  ",
"  ..OO++@@@@@@@@@@@@@@@@@@@@@@@@@@@@@@@@++OOoo  ",
"  ..OO++@@@@@@@@@@@@@@@@@@@@@@@@@@@@@@@@++OOoo  ",
"  ..OO++@@@@@@@@@@@@@@@@@@@@@@@@@@@@@@@@++OOoo  ",
"  ..OO++@@@@@@@@@@@@@@@@@@@@@@@@@@@@@@@@++OOoo  ",
"  ..OO++@@@@@@@@@@@@@@@@@@@@@@@@@@@@@@@@++OOoo  ",
"  ..OO++@@@@@@@@@@@@@@@@@@@@@@@@@@@@@@@@++OOoo  ",
"  ..OO++@@@@@@@@@@@@@@@@@@@@@@@@@@@@@@@@++OOoo  ",
"  ..OO++@@@@@@@@@@@@@@@@@@@@@@@@@@@@@@@@++OOoo  ",
"  ..OO++@@@@@@@@@@@@@@@@@@@@@@@@@@@@@@@@++OOoo  ",
"  ..OO++@@@@@@@@@@@@@@@@@@@@@@@@@@@@@@@@++OOoo  ",
"  ..OO++@@@@@@@@@@@@@@@@@@@@@@@@@@@@@@@@++OOoo  ",
"  ..OO++@@@@@@@@@@@@@@@@@@@@@@@@@@@@@@@@++OOoo  ",
"  ..OO++@@@@@@@@@@@@@@@@@@@@@@@@@@@@@@@@++OOoo  ",
"  ..OO++@@@@@@@@@@@@@@@@@@@@@@@@@@@@@@@@++OOoo  ",
"  ..OO++@@@@@@@@@@@@@@@@@@@@@@@@@@@@@@@@++OOoo  ",
"  ..OO++++++++++++++++++++++++++++++++++++OOoo  ",
"  ..OO++++++++++++++++++++++++++++++++++++OOoo  ",
"  ..OOOOOOOOOOOOOOOOOOOOOOOOOOOOOOOOOOOOOOOOoo  ",
"  ..OOOOOOOOOOOOOOOOOOOOOOOOOOOOOOOOOOOOOOOOoo  ",
"  ......................................XXoooo  ",
"  ......................................XXoooo  ",
"                                                ",
"                                                "
};
